<?xml version="1.0" encoding="iso-8859-1"?>
<!-- Generator: Adobe Illustrator 19.0.0, SVG Export Plug-In . SVG Version: 6.00 Build 0)  -->
<svg version="1.1" id="Capa_1" xmlns="http://www.w3.org/2000/svg" xmlns:xlink="http://www.w3.org/1999/xlink" x="0px" y="0px"
	 viewBox="0 0 480 480" style="enable-background:new 0 0 480 480;" xml:space="preserve">
<path style="fill:#FFC931;" d="M271.216,468.836c5.48,2.736,11.968,2.528,17.256-0.56l174.52-101.8
	c5.576-3.248,9.008-9.216,9.008-15.672c0-11.264-10.16-19.808-21.256-17.88L288,361.228l17.376,17.376c4.24,4.24,6.624,10,6.624,16
	c0,12.496-10.128,22.624-22.624,22.624c-6,0-11.76-2.384-16-6.624L232,369.228l41.376,41.376c4.24,4.24,10,6.624,16,6.624
	c12.496,0,22.624-10.128,22.624-22.624c0-6-2.384-11.76-6.624-16L288,361.228l-48-48h-88v112h32L271.216,468.836z"/>
<polygon style="fill:#C9F4F3;" points="152,305.228 120,305.228 120,433.228 152,433.228 152,425.228 152,313.228 "/>
<rect x="8" y="305.228" style="fill:#406AF2;" width="112" height="128"/>
<path style="fill:#4BDDDD;" d="M336,217.228c26.512,0,48-21.488,48-48c0-17.392-9.28-32.576-23.128-41l-0.872,1l0.872-1
	c-7.264-4.408-15.752-7-24.872-7c-26.512,0-48,21.488-48,48c0,9.072,2.56,17.528,6.936,24.76l1.064-0.76l-1.064,0.76
	C303.344,207.9,318.56,217.228,336,217.228z"/>
<g>
	<circle style="fill:#B139D8;" cx="440" cy="41.228" r="32"/>
	<circle style="fill:#B139D8;" cx="448" cy="273.228" r="24"/>
	<circle style="fill:#B139D8;" cx="152" cy="41.228" r="32"/>
	<circle style="fill:#B139D8;" cx="48" cy="153.228" r="40"/>
	<circle style="fill:#B139D8;" cx="208" cy="249.228" r="32"/>
</g>
<path style="fill:#42C2C2;" d="M384,169.228c0-17.392-9.28-32.576-23.128-41c-7.264-4.408-15.752-7-24.872-7v96
	C362.512,217.228,384,195.74,384,169.228z"/>
<g>
	<path style="fill:#2A0E54;" d="M449.368,325.044L290.72,352.636l-45.064-45.064c-1.496-1.504-3.536-2.344-5.656-2.344h-80
		c0-4.424-3.584-8-8-8h-32H8c-4.416,0-8,3.576-8,8v128c0,4.424,3.584,8,8,8h112h32c4.416,0,8-3.576,8-8h22.112l85.528,42.768
		c3.696,1.848,7.704,2.776,11.696,2.776c4.552,0,9.096-1.192,13.168-3.576l174.512-101.8c8-4.672,12.976-13.32,12.976-22.584
		c0-7.736-3.392-15.032-9.32-20.016C464.76,325.812,457.008,323.732,449.368,325.044z M16,313.228h96v112H16V313.228z M144,425.228
		h-16v-112h16V425.228z M458.968,359.572l-174.52,101.8c-2.976,1.728-6.584,1.84-9.656,0.312l-87.216-43.608
		c-1.104-0.56-2.336-0.848-3.576-0.848h-24v-96h76.688l63.032,63.032c2.72,2.728,4.28,6.488,4.28,10.344
		c0,8.064-6.56,14.624-14.632,14.624c-3.904,0-7.584-1.52-10.344-4.28l-41.368-41.376l-11.312,11.312l41.376,41.376
		c5.784,5.784,13.472,8.968,21.648,8.968c16.896,0,30.632-13.744,30.632-30.624c0-8.184-3.184-15.872-8.976-21.656l-6.472-6.48
		l147.56-25.664c2.952-0.512,5.976,0.296,8.272,2.232s3.616,4.768,3.616,7.768C464,354.396,462.072,357.756,458.968,359.572z"/>
	<path style="fill:#2A0E54;" d="M440,81.228c22.056,0,40-17.944,40-40s-17.944-40-40-40s-40,17.944-40,40
		c0,8.264,2.52,15.952,6.832,22.336L359,118.228c-7.024-3.184-14.8-5-23-5c-10.76,0-20.792,3.104-29.336,8.392L186.32,61.444
		c3.52-5.96,5.68-12.808,5.68-20.216c0-22.056-17.944-40-40-40s-40,17.944-40,40s17.944,40,40,40c8.632,0,16.584-2.816,23.136-7.488
		l118.328,59.168c-4.96,5.8-8.776,12.608-11.048,20.096l-187.096-7.48c-3.704-22.816-23.48-40.296-47.32-40.296
		c-26.472,0-48,21.528-48,48s21.528,48,48,48c23.632,0,43.288-17.184,47.232-39.704l184.784,7.392c0,0.104-0.016,0.208-0.016,0.312
		c0,7.92,1.672,15.448,4.648,22.28l-45.728,32.664c-7.336-9.04-18.4-14.944-30.92-14.944c-22.056,0-40,17.944-40,40s17.944,40,40,40
		s40-17.944,40-40c0-3.736-0.68-7.28-1.64-10.712l46.728-33.376c10.28,12.264,25.696,20.088,42.912,20.088
		c10.584,0,20.448-3,28.896-8.128l53.056,45.48c-1.184,3.352-1.952,6.896-1.952,10.648c0,17.648,14.352,32,32,32s32-14.352,32-32
		s-14.352-32-32-32c-8.064,0-15.36,3.096-20.992,8.04l-49.576-42.496c9.016-9.944,14.568-23.088,14.568-37.544
		c0-16.872-7.536-32-19.384-42.272l45.688-52.216C424.568,78.812,431.992,81.228,440,81.228z M48,185.228c-17.648,0-32-14.352-32-32
		s14.352-32,32-32s32,14.352,32,32S65.648,185.228,48,185.228z M208,273.228c-13.232,0-24-10.768-24-24s10.768-24,24-24
		s24,10.768,24,24S221.232,273.228,208,273.228z M152,65.228c-13.232,0-24-10.768-24-24s10.768-24,24-24s24,10.768,24,24
		S165.232,65.228,152,65.228z M448,257.228c8.824,0,16,7.176,16,16s-7.176,16-16,16s-16-7.176-16-16S439.176,257.228,448,257.228z
		 M376,169.228c0,22.056-17.944,40-40,40s-40-17.944-40-40s17.944-40,40-40S376,147.172,376,169.228z M440,17.228
		c13.232,0,24,10.768,24,24s-10.768,24-24,24s-24-10.768-24-24S426.768,17.228,440,17.228z"/>
</g>
<g>
</g>
<g>
</g>
<g>
</g>
<g>
</g>
<g>
</g>
<g>
</g>
<g>
</g>
<g>
</g>
<g>
</g>
<g>
</g>
<g>
</g>
<g>
</g>
<g>
</g>
<g>
</g>
<g>
</g>
</svg>
