<svg xmlns="http://www.w3.org/2000/svg" viewBox="0 0 19.783 13.993">
  <defs>
    <style>
      .cls-1 {
        fill: #fff;
      }
    </style>
  </defs>
  <g id="Слой_2" data-name="Слой 2" transform="translate(0.027)">
    <g id="Слой_1" data-name="Слой 1">
      <path id="Path_446" data-name="Path 446" class="cls-1" d="M6.382,0A3.3,3.3,0,0,0,3.173,2.549H.758a.758.758,0,1,0,0,1.515H3.173a3.3,3.3,0,0,0,6.418,0h9.378a.758.758,0,0,0,0-1.515H9.591A3.3,3.3,0,0,0,6.382,0Zm0,5.1A1.783,1.783,0,1,1,8.165,3.316,1.783,1.783,0,0,1,6.382,5.1Z"/>
      <path id="Path_447" data-name="Path 447" class="cls-1" d="M13.371,8.3a3.3,3.3,0,0,0-3.209,2.549H.758a.758.758,0,1,0,0,1.515h9.378a3.3,3.3,0,0,0,6.418,0H18.97a.758.758,0,1,0,0-1.515H16.553A3.3,3.3,0,0,0,13.371,8.3Zm0,5.081A1.783,1.783,0,1,1,15.154,11.6a1.783,1.783,0,0,1-1.783,1.781Z" transform="translate(0 -0.901)"/>
    </g>
  </g>
</svg>
