<svg xmlns="http://www.w3.org/2000/svg" width="20.835" height="20" viewBox="0 0 20.835 20"><defs><style>.a{fill:#fff;}</style></defs><g transform="translate(0 -17.84)"><g transform="translate(0 17.84)"><path class="a" d="M160.637,21.648l8.306-2.267-.44-.889a1.17,1.17,0,0,0-1.568-.529L159.5,21.648Z" transform="translate(-155.768 -17.84)"/><path class="a" d="M330.219,86.46a1.169,1.169,0,0,0-.309.042l-1.951.533L322,88.662h9.712l-.365-1.338A1.168,1.168,0,0,0,330.219,86.46Z" transform="translate(-314.466 -84.855)"/><path class="a" d="M18.465,215.56H1.172a1.171,1.171,0,0,0-1.13.863A1.211,1.211,0,0,0,0,216.73v13.034a1.17,1.17,0,0,0,1.17,1.17H18.462a1.17,1.17,0,0,0,1.17-1.17V226.5H12.69a1.99,1.99,0,0,1-1.989-1.989v-2.6a1.986,1.986,0,0,1,1.986-1.986h6.944V216.73A1.167,1.167,0,0,0,18.465,215.56Z" transform="translate(0 -210.934)"/><path class="a" d="M501.333,437.067a1.168,1.168,0,0,0-.409-.243,1.193,1.193,0,0,0-.379-.063H493.57a1.17,1.17,0,0,0-1.17,1.17v2.6a1.17,1.17,0,0,0,1.17,1.17h6.975a1.192,1.192,0,0,0,.379-.063,1.134,1.134,0,0,0,.409-.243,1.166,1.166,0,0,0,.381-.863v-2.6A1.166,1.166,0,0,0,501.333,437.067Zm-5.32,2.4a.585.585,0,0,1-.585.585h-.388a.585.585,0,0,1-.585-.585v-.388a.573.573,0,0,1,.225-.459.591.591,0,0,1,.36-.126h.388a.585.585,0,0,1,.585.585v.388Z" transform="translate(-480.879 -426.96)"/></g></g></svg>